<svg width="784" height="150" viewBox="0 0 784 150" fill="none" xmlns="http://www.w3.org/2000/svg">
<path id="PEYMAN" d="M90.3125 77.0212L90.313 77.0207C99.0669 68.7779 103.454 58.4178 103.454 46.1175C103.454 33.4187 98.9293 22.9006 89.8627 14.7776C80.8642 6.59152 67.8796 2.70057 51.3296 2.70057H5H2.5V5.20057V145V147.5H5H23.7377H26.2377V145V89.1332H51.3296C68.3987 89.1332 81.5623 85.2557 90.3125 77.0212ZM197.781 66.7765V64.2765H195.281H145.48V22.543H201.458H203.958V20.043V5V2.5H201.458H124.242H121.742V5V145V147.5H124.242H201.458H203.958V145V129.957V127.457H201.458H145.48V84.3195H195.281H197.781V81.8195V66.7765ZM332.497 6.38325L334.475 2.70057H330.295H309.498H307.953L307.262 4.08215L274.082 70.4146L240.901 4.08215L240.21 2.70057H238.665H217.868H213.68L215.668 6.38729L262.316 92.8804V145V147.5H264.816H283.553H286.053V145V92.878L332.497 6.38325ZM498.137 6.20344V3.70344H495.637H475.664H474.061L473.392 5.15969L422.951 114.943L372.51 5.15968L371.841 3.70344H370.238H350.059H347.559V6.20344V145V147.5H350.059H368.797H371.297V145V52.7503L414.089 146.042L414.758 147.5H416.362H429.54H431.145L431.813 146.04L474.399 52.9758V145V147.5H476.899H495.637H498.137V145V6.20344ZM538.122 147.5H539.861L540.466 145.869L551.392 116.411H610.51L621.436 145.869L622.041 147.5H623.78H643.547H647.144L645.89 144.129L594.207 5.13157L593.602 3.50287H591.864H570.243H568.508L567.901 5.12853L516.012 144.126L514.752 147.5H518.354H538.122ZM779 147.5H781.5V145V5V2.5H779H760.262H757.762V5V107.977L686.968 3.59674L686.225 2.5H684.899H666.162H663.662V5V145V147.5H666.162H684.899H687.399V145V41.8341L758.192 146.402L758.936 147.5H760.262H779ZM72.7263 63.1066C68.4433 66.9309 61.4845 69.0902 51.3296 69.0902H26.2377V22.7435H51.3296C61.1933 22.7435 68.1248 24.8458 72.5675 28.6178C76.9317 32.3232 79.3041 37.995 79.3041 46.1175C79.3041 53.74 77.0173 59.2751 72.7263 63.1066ZM558.588 96.5688L580.951 35.715L603.313 96.5688H558.588Z" stroke="white" stroke-width="5"/>
</svg>
